<svg xmlns="http://www.w3.org/2000/svg" viewBox="0 0 64 64" width="64" height="64">
  <rect x="16" y="16" width="32" height="32" rx="3" fill="#007dcc"/>
  <rect x="24" y="24" width="16" height="16" rx="2" fill="#ffffff"/>
  <g stroke="#007dcc" stroke-width="2">
    <line x1="16" y1="24" x2="8" y2="24"/><line x1="16" y1="32" x2="8" y2="32"/><line x1="16" y1="40" x2="8" y2="40"/>
    <line x1="48" y1="24" x2="56" y2="24"/><line x1="48" y1="32" x2="56" y2="32"/><line x1="48" y1="40" x2="56" y2="40"/>
    <line x1="24" y1="16" x2="24" y2="8"/><line x1="32" y1="16" x2="32" y2="8"/><line x1="40" y1="16" x2="40" y2="8"/>
    <line x1="24" y1="48" x2="24" y2="56"/><line x1="32" y1="48" x2="32" y2="56"/><line x1="40" y1="48" x2="40" y2="56"/>
  </g>
</svg>
